<svg xmlns="http://www.w3.org/2000/svg" viewBox="0 0 763.22 153.37"><path d="M793.79,266.53c7.58.78,10.47,6.62,13.49,12.32v6.71c-1.08.1-1.21,1.08-1.73,1.75-4.19,5.37-10.66,6.59-15.22,2.94s-4.2-10.14-.13-15.55c1.45-1.93,7-2.16,3.58-6.72-.4-.32-.53-.65-.4-1S793.65,266.53,793.79,266.53Z" transform="translate(-44.06 -203.64)" fill="#452b1a"></path><path d="M371.91,328.56c0,5-.75,9.79-4.32,13.68a13,13,0,0,1-1,1.74c-.14.21-.29.42-.45.62-1.87,2.45-4.4,4.33-6.54,6.54.75-3.69,4.18-5.3,6.3-7.92a33.39,33.39,0,0,0,4.27-17.87c-.27-8-.36-16,0-24A36.4,36.4,0,0,0,362,276c-8.15-7.44-17.29-11.43-28.54-8.06-8.68,4.8-11.11,13.33-11.71,22-1.11,15.92-1.9,31.92.74,47.83,1.18,7.13,4.22,13,11,16.39,5.25,1.75,10.72,1,16.09,1.3a36.61,36.61,0,0,1-16-.36l-.3-.07a4.51,4.51,0,0,1-.52-.17c-6.76-2.2-9.58-7.72-11.47-14a56.09,56.09,0,0,1-1.89-18.55c.5-12.88-1.28-25.85,1.51-38.66,1.55-7.12,4.77-12.94,11.67-16.21l.26-.08.72-.21c11-3.08,20.24,0,28,7.87.15.16.3.31.44.47s.5.51.74.78c5.9,6.24,9.38,13.42,9.27,22.17C371.85,308.51,372,318.53,371.91,328.56Z" transform="translate(-44.06 -203.64)" fill="#452b1a"></path><path d="M387.61,354.15a2.45,2.45,0,0,1-.65.15c-4.92.06-10.28,1.33-14.67-.18-5.4-1.86,0-8.4-3.14-12.09-.71.84-1.4,1.66-2.08,2.49a3.37,3.37,0,0,1-.95.08c-.53-.06-.73-.42-.24-1.38a33.39,33.39,0,0,0,4.27-17.87c-.27-8-.36-16,0-24A36.4,36.4,0,0,0,362,276a1.29,1.29,0,0,1-.44-1,1.34,1.34,0,0,1,.47-.84c3.36,2.27,4.92,6,7.93,10V210.48c1.64-4.47,5.85-.71,8.3-2.56,3.4-.33,6.24-2.06,9.64-4.28V352.21A1.22,1.22,0,0,1,387.61,354.15Z" transform="translate(-44.06 -203.64)" fill="#452b1a"></path><path d="M565.15,304.49c-16.88-.35-33.78,0-50.67-.3-4.56-.08-6.24.92-6.07,5.79.32,9.38.2,18.78,2.86,27.85,3.73,12.74,11,17.21,27.89,17.73.5.22.67.44.5.65a.7.7,0,0,1-.52.3c-21,1.9-37.75-5-47.6-24.14-12.88-25,3.62-60.83,29.8-65.79l.22-.06c1.17-.3,1.58.28,1.68,1.19,0,.05,0,.11,0,.16a2.05,2.05,0,0,1-.34-.07c-10.81,6.19-17.31,22.21-13.8,33.45.85,2.73,2.76,1.77,4.3,1.8,7,.11,14,.05,21,.05,15.88,0,15.9,0,15.65-16.05-.14-8.26-2.29-15.47-10.78-19.16l-.37.12a1.36,1.36,0,0,1,0-.2c.11-.92.44-1.58,1.33-1.49a2.78,2.78,0,0,1,.74.19c15.89,3.06,28.1,16.63,29.37,32.32C570.69,302.93,569.9,304.59,565.15,304.49Z" transform="translate(-44.06 -203.64)" fill="#452b1a"></path><path d="M102.08,265.66c6.76-.51,13.37-.4,19.84,2.25,7.51,3.07,11.45,8.9,13.81,17.09l4-5.36a1,1,0,0,1,0,1.79,34.79,34.79,0,0,0-4.08,17.92q.43,23.49,0,47c-.09,4.47,1.24,5.89,5.6,5.4a36.62,36.62,0,0,1,9.39.41,413.91,413.91,0,0,1-47.82.49c.42-.45.59-.81.78-.82,4.66-.23,11.28,1.35,13.52-1.06,3.09-3.34,1-9.76,1-14.85.11-16.33.28-32.67-.07-49-.15-7.5-.21-15.57-9.33-19C106.87,266.22,103.32,269.27,102.08,265.66Z" transform="translate(-44.06 -203.64)" fill="#452b1a"></path><path d="M600.09,267.85c-4.14,1.94-7.65,4.46-9.74,8.78-4.25,8.83-2,15,7.18,18.43,8.84,3.28,18.15,4.79,27.31,6.89,9.56,2.19,18.29,6.32,20.58,16.87,2.37,10.89,1.1,21.37-7.76,29.59-1.57,1.47-2.92,3.57-6,2.63,1.56-1.8,3.49-3.27,4.42-5.21,3.72-7.75,4.9-18.5-7.15-22.49-11-3.66-22.47-6-33.5-9.7-12.24-4.05-16.92-11.7-15.78-23.84,1.16-12.38,8.8-21.05,20.44-23.22.39.29.52.57.38.85S600.22,267.85,600.09,267.85Z" transform="translate(-44.06 -203.64)" fill="#452b1a"></path><path d="M160.29,265.67c3.83,0,7.7-.46,11.47,0C186.1,267.27,194,276.32,194,290.87c0,18.1.18,36.2-.11,54.29-.08,5,.88,7.42,6.44,6.58a29.21,29.21,0,0,1,8.68.38c-15.89,1.31-31.79,1.06-48.43.55,2.65-1.64,4.83-.94,6.87-1,8.95-.11,8.95,0,8.95-8.62,0-19,.14-38-.06-57-.08-7.43-.65-15-9.38-18.18C165.07,266.23,161.55,269.26,160.29,265.67Z" transform="translate(-44.06 -203.64)" fill="#452b1a"></path><path d="M458.07,340.65c-.12,1.83-1.5,3.21-2.87,4.42,2.93-12.53.88-25.24,1.37-37.86a76.3,76.3,0,0,0-18.91.94A27.17,27.17,0,0,0,423,348.52a12.05,12.05,0,0,0,9.24,5.81c6,1,11.35-3.08,17.34-2.46-4.89,1.13-9.56,3.43-14.65,3.62-.42,0-.83,0-1.25,0s-1-.06-1.52-.13c-7.46-.87-11.78-4.74-13.29-12.74a49.22,49.22,0,0,1,.1-19.31c2.11-10,8.93-14.67,18.65-15.77l.4-.05h.11c6.13-1.32,12.26-1.9,18.41-.31h0l.74.2C460.08,318.42,458.77,329.55,458.07,340.65Z" transform="translate(-44.06 -203.64)" fill="#452b1a"></path><path d="M65.49,269.71c4.29.28,8.1-1.13,12.11-4v18.43c.57.38,1.27.62,1.42,1.4-2.8,10-1.26,20.25-1.45,30.39-.22,11.75.05,23.52.11,35.28.17,1.37-.52,2-1.83,2.05-5.29.1-10.57.14-15.85,0-1,0-1.45-.82-1.32-1.83l0,0c1.26-3.93.57-8,.58-12,.09-20.8.19-41.61-.07-62.41C59.16,272.23,60,269.28,65.49,269.71Z" transform="translate(-44.06 -203.64)" fill="#452b1a"></path><path d="M484.05,354.72a1.06,1.06,0,0,1-.26.38s0,0,0,0l-.14.06c-11.18,4-19.42,1.41-25.92-8.17-.64-.93-1.26-1.81-2.51-1.93,2.93-12.53.88-25.24,1.37-37.86l0,0c-.66-.54-.65-1.09,0-1.64,0-7.82.07-15.64.07-23.46,0-6.22-2-11.35-8.05-14.22-.09-.85,0-1.45.56-1.5a1.86,1.86,0,0,1,1,.26c16.34,2.57,24.09,11.35,24.09,27.3,0,16.94-.05,33.89,0,50.83,0,8,1.73,9.48,9.42,9C484.08,354.1,484.19,354.41,484.05,354.72Z" transform="translate(-44.06 -203.64)" fill="#452b1a"></path><path d="M778.8,267.93c-13.6,9.44-14.06,22.71-1.12,32.81,2.29,1.79,4.63,3.5,6.94,5.27,9.57,7.34,14.06,17.11,11.18,28.71-2.94,11.79-11.58,18.54-23.7,20.69-1.4.75-2.67,1.21-2.64-1.18,13.82-8.5,15.34-21.06,3.84-32.43-2.7-2.67-5.64-5.1-8.38-7.73-7.39-7.1-11.81-15.62-8.57-25.77,3.48-10.86,10.56-18.94,22.48-21.61.41.29.54.57.4.84S778.94,267.93,778.8,267.93Z" transform="translate(-44.06 -203.64)" fill="#452b1a"></path><path d="M333.52,355.1c0,.34-.25.52-.67.46a2.14,2.14,0,0,1-.67-.2c-27.82-7.37-40.7-40.37-26-66.88,5.81-10.47,13.75-18.61,25.88-21.75a2.21,2.21,0,0,1,.85-.23h0c.41,0,.58.26.59.69a4.15,4.15,0,0,1-.09.79c-8.68,4.8-11.11,13.33-11.71,22-1.11,15.92-1.9,31.92.74,47.83,1.18,7.13,4.22,13,11,16.39A2.53,2.53,0,0,1,333.52,355.1Z" transform="translate(-44.06 -203.64)" fill="#452b1a"></path><path d="M262.25,354.66a27.84,27.84,0,0,1-4.59.77,2.14,2.14,0,0,1-.34-1.08.76.76,0,0,1,0-.15l.34.08c8.09-3.3,12.28-9.74,13-17.93a287.69,287.69,0,0,0,0-50.58c-.69-8.08-4.72-14.77-13-17.9l-.34.08v-.15a2.17,2.17,0,0,1,.32-1c15.15,1.85,28.21,14.59,32.92,32.15C296.93,322.62,284.44,347.24,262.25,354.66Z" transform="translate(-44.06 -203.64)" fill="#452b1a"></path><path d="M225.3,287.68c-.61,15.61-.58,31.27,0,46.88.3,8.9,4.14,16.4,13.39,19.81l.21-.06a.21.21,0,0,1,0,.11c.07.67-.28,1.08-1.51,1-19.75-4.65-33.55-22.85-33.57-44.28s13.77-39.62,33.56-44.33c1.23-.15,1.59.29,1.57,1a.69.69,0,0,1,0,.13l-.25-.07C229.39,271.26,225.64,278.86,225.3,287.68Z" transform="translate(-44.06 -203.64)" fill="#452b1a"></path><path d="M696.26,286.55c-2.93,6.62-5.33,13.47-8,20.23l1.25.37a18.82,18.82,0,0,1-1.39,1.28c-3.16,10-5.38,19.93-2.92,30.49,1.82,7.74,5.6,13.34,13.71,15.33,1.93,1.63,5.41-1.32,6.69,2.22-26.71,1.61-43.7-18.76-37.07-45.15,6.13-24.4,22.26-39.17,46.64-45.34a2.68,2.68,0,0,1,.32.63,1.63,1.63,0,0,1,.09.49,3,3,0,0,1-.43-.5A39.26,39.26,0,0,0,696.26,286.55Z" transform="translate(-44.06 -203.64)" fill="#452b1a"></path><path d="M438,307.5a.43.43,0,0,1,0,.25c-.1.27-.21.4-.31.4A27.17,27.17,0,0,0,423,348.52a12.05,12.05,0,0,0,9.24,5.81.65.65,0,0,0,.18.15c.74.45,2.29-.07,2.51,1a2,2,0,0,1-.06,1c-6.26.22-12.51.91-18.71-.94-7.67-2.27-13.18-6.71-14.92-14.65-1.91-8.77-.43-16.87,6.79-23,8.49-7.22,18.68-10.17,29.65-10.92A.77.77,0,0,1,438,307.5Z" transform="translate(-44.06 -203.64)" fill="#452b1a"></path><path d="M740.45,297.41c-11.26,11.74-25.79,14.52-41.44,13.43a1.32,1.32,0,0,1-.19-1,.56.56,0,0,1,0-.12l.14.17c18.18-.77,26.86-6.66,31.54-21.4,4.08-12.82-1.87-21.46-15-21.91a1.63,1.63,0,0,1,.09.49,3,3,0,0,1-.43-.5l0-.62c5.6-.68,11.13-1.09,16.71.57C746.88,271,751.29,286.11,740.45,297.41Z" transform="translate(-44.06 -203.64)" fill="#452b1a"></path><path d="M735.31,336.54c1.12-2.89,2-5.94,3.43-8.63,2.34-4.23,6.41-5.36,11-4.68a8.38,8.38,0,0,1,7.13,6.27c1.16,4.3.63,8.72-3.63,11.25-5.66,3.35-8.66,7-3,13.41-7.86-3-12.5-7.88-13.53-15.83C736.34,337.64,735.5,337.34,735.31,336.54Z" transform="translate(-44.06 -203.64)" fill="#452b1a"></path><path d="M429.54,267.82c-2.2,1.07-4.61,1.85-6.55,3.26-4.55,3.31-4.55,6.44,0,9.69,4.86,3.47,5.36,8.29,3.59,13.07s-6.25,6.08-11.14,5.4c-5.83-.82-7.5-5.09-7.91-10.07-.89-11,8.51-20.59,22-22.53.31.26.41.52.31.79S429.64,267.82,429.54,267.82Z" transform="translate(-44.06 -203.64)" fill="#452b1a"></path><path d="M578.05,339c0-3.8,0-7.61,0-11.41,0-1.29-.1-2.88,1.86-2.91a2.35,2.35,0,0,1,2.29,2.1,42.06,42.06,0,0,0,8.83,18.53c1.27,1.58.17,1.36-.83,2.36-3,3-3.91,8.22-10,6.85-3.2-.72-2-3-2.1-4.78C577.93,346.16,578.05,342.57,578.05,339Z" transform="translate(-44.06 -203.64)" fill="#452b1a"></path><path d="M640.7,280.27c0,3.58,0,7.16,0,10.73,0,1,.24,2.34-1.37,2.52s-2.37-.77-2.45-2.36c-.28-6.06-2.88-11.16-6.92-15.53-3-3.24,1.34-3.91,2-5.84,1.08-3.22,4-4.08,7.15-3.35,2.65.61,1.48,2.88,1.57,4.45C640.82,274,640.7,277.14,640.7,280.27Z" transform="translate(-44.06 -203.64)" fill="#452b1a"></path><path d="M65.49,269.71c-4.24.91-5.43,3.26-5.37,7.72.31,22.46.19,44.92.07,67.38,0,2.19,1.4,4.95-1.48,6.6.13-25.27.21-50.54.45-75.82,0-3.51-1.66-4.08-4.57-4-3.47.14-7,0-10.44,0v-2Z" transform="translate(-44.06 -203.64)" fill="#452b1a"></path><path d="M664.21,350.58c-.2,3.5-2.34,6-6.23,5.94-3.68-.09-6.33-2.28-6.32-6.34s2.63-6.37,6.29-6.39S664.17,346,664.21,350.58Z" transform="translate(-44.06 -203.64)" fill="#452b1a"></path><path d="M58.68,351.43c6.35,1.54,12.69,1.8,19-.18h15l0,1.63H44.19l-.13-1.52H51.3Z" transform="translate(-44.06 -203.64)" fill="#452b1a"></path><path d="M539.15,356.51c0-.31,0-.63,0-.95,2.77-.85,5.53-1.72,8.3-2.56,9.86-3,15.54-9.86,18.89-19.25.88-2.47.15-5.88,3.42-7.48C569.74,342.21,557.16,354.57,539.15,356.51Z" transform="translate(-44.06 -203.64)" fill="#452b1a"></path><path d="M735.31,336.54a1.51,1.51,0,0,1,1.37,1.79c-3.66,3.24-7.18,6.66-11,9.67-5.86,4.59-12.36,7.94-20,8.47-1.87-1.81-5,0-6.68-2.22C714.87,356,725.22,346.54,735.31,336.54Z" transform="translate(-44.06 -203.64)" fill="#452b1a"></path><path d="M160.29,265.67c1.89,1.74,4.93.15,6.68,2.27-12-1.42-20.54,4.2-27.18,13.49,0-.59,0-1.19,0-1.79C144.17,271.45,151.16,267,160.29,265.67Z" transform="translate(-44.06 -203.64)" fill="#452b1a"></path><path d="M362,274.22c0,.43,0,.87,0,1.31V276c-8.15-7.44-17.29-11.43-28.54-8.06l-.63-.58-.73-.67.85-.23h0C344,263.5,353.88,265.41,362,274.22Z" transform="translate(-44.06 -203.64)" fill="#452b1a"></path><path d="M378.21,207.92c-2.28,2.4-6.07,0-8.3,2.56h-15.7l-.07-2.56Z" transform="translate(-44.06 -203.64)" fill="#452b1a"></path><path d="M102.08,265.66c1.88,1.77,4.92.18,6.68,2.28-7.63-.26-15.06.18-21.3,5.57C91.18,268.65,96.15,266.28,102.08,265.66Z" transform="translate(-44.06 -203.64)" fill="#452b1a"></path><path d="M429.54,267.82a3.12,3.12,0,0,1,0-1.18,37.11,37.11,0,0,1,20.63,0l-1.57,1.24A39.36,39.36,0,0,0,429.54,267.82Z" transform="translate(-44.06 -203.64)" fill="#452b1a"></path><path d="M257.67,267.87l-.34.08v-.15a39.77,39.77,0,0,0-18.41,0,.69.69,0,0,1,0,.13l-.25-.07-1.3-1.05a32.46,32.46,0,0,1,20.3,0A3.13,3.13,0,0,1,257.67,267.87Z" transform="translate(-44.06 -203.64)" fill="#452b1a"></path><path d="M257.66,355.43a33.19,33.19,0,0,1-20.3-.05l1.29-1,.21-.06a.21.21,0,0,1,0,.11,40.21,40.21,0,0,0,18.45-.07.76.76,0,0,1,0-.15l.34.08A4,4,0,0,1,257.66,355.43Z" transform="translate(-44.06 -203.64)" fill="#452b1a"></path><path d="M449.57,351.87a28.81,28.81,0,0,1-14.71,4.6c-.39-.33-.8-.65-1.19-1l-1.26-1-.18-.15C438.27,355.31,443.58,351.25,449.57,351.87Z" transform="translate(-44.06 -203.64)" fill="#452b1a"></path><path d="M456.57,305.54v1.67a76.3,76.3,0,0,0-18.91.94,4,4,0,0,1-.05-.6,3.05,3.05,0,0,1,.06-.6C443.82,304.55,450.29,306.39,456.57,305.54Z" transform="translate(-44.06 -203.64)" fill="#452b1a"></path><path d="M541,266.51l-1.72,1.38-.37.12a1.36,1.36,0,0,1,0-.2,30.21,30.21,0,0,0-15.68-.1c0,.05,0,.11,0,.16a2.05,2.05,0,0,1-.34-.07l-1.58-1.22.22-.06a33.84,33.84,0,0,1,18.69-.2Z" transform="translate(-44.06 -203.64)" fill="#452b1a"></path><path d="M608.33,356.52c-5.9-.66-10.72-3.47-14.85-7.71,4.75,2.64,9.86,4.43,14.78,6.65.46.21.63.44.49.68S608.48,356.52,608.33,356.52Z" transform="translate(-44.06 -203.64)" fill="#452b1a"></path><path d="M769.46,354.23l2.64,1.18c-6.61,2.57-13.16,1.49-19.72-.13C758.11,355.28,763.86,356.26,769.46,354.23Z" transform="translate(-44.06 -203.64)" fill="#452b1a"></path><path d="M349.52,355.46c-5.57,2.36-11.13,1.73-16.67.1l-.67-.2.52-.5.73-.7C338.68,355.91,344.15,355.15,349.52,355.46Z" transform="translate(-44.06 -203.64)" fill="#452b1a"></path><path d="M483.63,355.17l.06-1.4c3.12-2.71,6.61-5.06,9-8.52C491.59,350.22,488.45,353.42,483.63,355.17Z" transform="translate(-44.06 -203.64)" fill="#452b1a"></path><path d="M615,265.66c4.56,1,8.77,2.77,11.88,6.78L615,266.78c-.46-.24-.62-.48-.48-.73S614.86,265.66,615,265.66Z" transform="translate(-44.06 -203.64)" fill="#452b1a"></path><path d="M79,285.58c-1,0-1.47-.42-1.42-1.4,3.1-2.67,3.61-7.49,9.27-10Z" transform="translate(-44.06 -203.64)" fill="#452b1a"></path><path d="M778.8,267.93a2.88,2.88,0,0,1,0-1.24,19.36,19.36,0,0,1,15-.16c0,.48,0,1,0,1.45A23.09,23.09,0,0,0,778.8,267.93Z" transform="translate(-44.06 -203.64)" fill="#452b1a"></path><path d="M615,265.66a4.19,4.19,0,0,0,0,1.12c-5,.14-10.06-.61-14.95,1.07a2.12,2.12,0,0,1,0-1.27C605,264.23,610,265.72,615,265.66Z" transform="translate(-44.06 -203.64)" fill="#452b1a"></path><path d="M699,310.84c-3.93.56-7.32-1.23-10.85-2.41.05-.55.09-1.1.14-1.65l1.25.37,9.27,2.72a.56.56,0,0,1,0-.12l.14.17C699,310.23,699,310.54,699,310.84Z" transform="translate(-44.06 -203.64)" fill="#452b1a"></path><path d="M367.07,344.52a13.27,13.27,0,0,1-7.49,6.62c.75-3.69,4.18-5.3,6.3-7.92l.69.76Z" transform="translate(-44.06 -203.64)" fill="#452b1a"></path><path d="M387.62,354.16l.24-2,13.74.79,0,1.16Z" transform="translate(-44.06 -203.64)" fill="#452b1a"></path><path d="M608.33,356.52a5.45,5.45,0,0,0-.07-1.06h14l0,1.06Z" transform="translate(-44.06 -203.64)" fill="#452b1a"></path><path d="M523.24,267.71l-.32.09a2.05,2.05,0,0,0,.34.07C523.25,267.82,523.25,267.76,523.24,267.71Zm15.68.1a1.36,1.36,0,0,0,0,.2l.37-.12Z" transform="translate(-44.06 -203.64)" fill="#452b1a"></path><path d="M257.33,354.2a.76.76,0,0,0,0,.15l.35-.07Zm-18.47.11-.21.06.22.05A.21.21,0,0,0,238.86,354.31Zm18.47-86.51V268l.34-.08Zm-18.68,0,.25.07a.69.69,0,0,0,0-.13Z" transform="translate(-44.06 -203.64)" fill="#452b1a"></path><path d="M715.53,266.61h-.34a3,3,0,0,0,.43.5A1.63,1.63,0,0,0,715.53,266.61Zm-16.71,43.26.18.05-.14-.17A.56.56,0,0,0,698.82,309.87Z" transform="translate(-44.06 -203.64)" fill="#452b1a"></path></svg>