<svg xmlns="http://www.w3.org/2000/svg" viewBox="0 0 694.86 92.05"><path d="M401.07,276.52l-5.76,16.93c-6.17,18.12-12.37,36.23-18.47,54.37-.63,1.88-1.48,2.53-3.49,2.48-5.65-.15-5.66-.05-7.5-5.52q-11.27-33.52-22.53-67a1.84,1.84,0,0,0-.89-1.07v4q0,29.73,0,59.48c0,4.84,1.33,6.15,6.24,6.24,1.05,0,2.1,0,3.15,0,1.3-.06,2.26-.1,2.3,1.81s-.8,2.08-2.33,2.07q-12.44-.08-24.89,0c-1.46,0-2.19-.17-2.18-1.95s.71-2.05,2.19-1.95a39,39,0,0,0,4.46,0c3.3-.16,5.39-2.25,5.38-5.5q0-30.78-.07-61.57c0-3.85-2-5.76-5.8-5.85-1.13,0-2.27-.05-3.4,0-1.46.07-2.61.21-2.59-2s1-2.12,2.55-2.11c9.7,0,19.39.09,29.09,0,2,0,2.64.76,3.2,2.45,6,18.07,12,36.12,18.21,54.76.85-2.39,1.54-4.29,2.2-6.21,5.57-16.2,11.17-32.4,16.65-48.64.61-1.8,1.4-2.37,3.29-2.35,9.6.11,19.21.07,28.82,0,1.42,0,2.43-.07,2.43,2s-.88,2.23-2.51,2.16a20.14,20.14,0,0,0-5.48.21c-3.24.79-4.22,1.93-4.23,5.28,0,10.57,0,21.13,0,31.7q0,14.55,0,29.09c0,4.88,1.75,6.6,6.62,6.63,1,0,2.1.08,3.14,0,1.58-.14,2.32.2,2.3,2.08s-1,1.8-2.32,1.8q-18.46,0-36.94,0c-1.33,0-2.24,0-2.26-1.85s.89-2,2.36-2c2.17,0,4.35.29,6.49-.47a4.09,4.09,0,0,0,3.09-4.27q-.06-32.49,0-65Z" transform="translate(-73.52 -262.91)" fill="#462c1c"></path><path d="M684.83,302c-3.22-20-17.9-32.38-38.37-32.64-13.71-.18-27.42,0-41.13-.08-1.61,0-2.24.24-2.28,2.1,0,2.06,1,2,2.38,2,.87-.05,1.75,0,2.62,0,5.32,0,6.91,1.57,6.91,6.81q0,14.93,0,29.87c0,10.21,0,20.43,0,30.65,0,3.67-.69,4.47-4.2,5.6a16.71,16.71,0,0,1-5.45.37c-1.36,0-2.25,0-2.25,1.87s.89,1.71,2.11,1.71c13.89,0,27.77,0,41.67,0a38,38,0,0,0,18.57-4.66C681,337,687.56,319,684.83,302ZM664.1,331.22c-1.85,6.71-5.06,12.51-12.36,14.68-5.38,1.6-10.92.8-16.39.73a2.8,2.8,0,0,1-2.7-2.75,34.34,34.34,0,0,1-.3-3.64q0-15.33,0-30.65c0-10.39,0-20.78,0-31.17,0-4.71.78-5.51,5.5-5.42,4.26.07,8.56-.48,12.79.4a15.8,15.8,0,0,1,12,9.54,45.26,45.26,0,0,1,3.36,15.5C666.65,309.44,667.08,320.45,664.1,331.22Z" transform="translate(-73.52 -262.91)" fill="#462c1c"></path><path d="M767.91,302.9c-2-15.76-12.47-32.63-33.15-34.54-16.82-1.54-31.24,6.21-37.92,21.45A46.43,46.43,0,0,0,693,309.92c0,1.4-.09,2.8,0,4.19,1.52,20.72,14.31,35.7,34.93,37.23,15.58,1.16,30-7,36.31-21.32A50.32,50.32,0,0,0,767.91,302.9Zm-18.53,6.86c-.14,7.67,0,15.36-1.87,22.9-2.63,10.42-10.09,15.42-20.65,13.65a14.74,14.74,0,0,1-11.34-8.7A36.74,36.74,0,0,1,712.16,324c-.73-11.16-1.09-22.32.73-33.43a42.61,42.61,0,0,1,1.21-5.08c2.42-8.09,8-12.39,16-12.48,8.5-.1,14.18,4,16.85,12.13,2.1,6.39,2.17,13,2.41,19.66C749.43,306.44,749.38,308.1,749.38,309.76Z" transform="translate(-73.52 -262.91)" fill="#462c1c"></path><path d="M583.93,328.68V312.77q0-16.5,0-33c0-4.48-1.89-6.36-6.35-6.4-1.05,0-2.1-.07-3.14,0-1.6.13-2.51,0-2.51-2.14s1.12-1.91,2.47-1.91c8.12,0,16.24.06,24.36,0,1.68,0,2.25.38,2.25,2.16s-.76,2-2.21,1.91a27.43,27.43,0,0,0-4.44.05c-3.65.37-5.08,2-5.08,5.58,0,22.8,0,45.59.05,68.38,0,2.23-.4,3.22-2.81,2.88a14.69,14.69,0,0,0-4.44,0c-3.88.65-6-1-8.08-4.3-12.32-19.72-24.91-39.28-37.41-58.88a7.59,7.59,0,0,0-.56-.67c-.53.64-.29,1.35-.29,2q0,25.82,0,51.61c0,4.95,1.35,6.29,6.38,6.38,1.14,0,2.27.05,3.41,0,1.42-.08,2.38-.07,2.4,2s-1.12,1.91-2.45,1.91H520.31c-1.21,0-2.36.28-2.33-1.77,0-1.87.7-2.22,2.3-2.11a34.78,34.78,0,0,0,4.45,0c3.15-.16,5.3-2.21,5.31-5.32q0-31.17,0-62.35c0-3-2-5-5.09-5.21a33.12,33.12,0,0,0-5,0c-1.68.15-1.82-.69-1.76-2,.06-1.16-.2-2.17,1.65-2.15q12.18.13,24.36,0c1.57,0,2.1.88,2.76,1.92q18,28.18,36,56.36A10.74,10.74,0,0,0,583.93,328.68Z" transform="translate(-73.52 -262.91)" fill="#462d1c"></path><path d="M110,350.24H76.15c-1.33,0-2.7.42-2.63-2,.06-2.15,1.17-1.87,2.49-1.88,8.92-.06,9.46-.62,9.46-9.54q0-28.15,0-56.32c0-5.69-1.45-7.15-7.1-7.15a20.79,20.79,0,0,0-2.62,0c-1.71.21-2.2-.4-2.21-2.16s.81-1.9,2.21-1.9q34.19,0,68.37,0c1.18,0,2.16-.14,2.27,1.62.44,6.88,1,13.75,1.55,20.63.07,1,.51,2.36-1.31,2-1.25-.24-3.17,1.18-3.43-1.72-.81-9.23-8.57-17-18-18.38-6.43-.92-12.9-.42-19.36-.49a2.77,2.77,0,0,0-3.09,3.09c0,9,0,18-.05,27,0,1,.22,1.43,1.3,1.41,3.92-.1,7.86.25,11.71-.86,6.39-1.84,9.94-6.2,10.19-12.93.07-1.73.55-2.11,2.22-2.13,1.86,0,2.08.75,2.07,2.32q-.07,15.45,0,30.91c0,1.55-.19,2.32-2.06,2.28s-2.1-.52-2.12-2.21c-.07-8-3.92-12.18-11.8-13.35a82.26,82.26,0,0,0-9.92-.47c-1.33-.05-1.6.48-1.6,1.68,0,10.91,0,21.83,0,32.74,0,2.32,1,4.11,3.41,4.13,7,.09,14,.81,20.86-1,9.6-2.54,14.92-9.06,16.87-18.64.21-1-.4-2.7,1.82-2.77s3,.3,2.71,2.79q-1.21,10.39-1.86,20.86c-.13,2.2-1,2.46-2.82,2.45C132.47,350.21,121.21,350.24,110,350.24Z" transform="translate(-73.52 -262.91)" fill="#462d1c"></path><path d="M444.44,305.42V279.49c0-4.68-1.45-6.2-6.17-6.44a32.13,32.13,0,0,0-3.4,0c-1.36.08-2.27,0-2.24-1.85s.9-1.87,2.26-1.87c12.31,0,24.62.05,36.93,0,1.64,0,2,.51,2.06,2.08.08,1.88-1,1.66-2.13,1.66-1.49,0-3-.09-4.45,0-3.45.29-5.39,2.37-5.39,5.84,0,17.11-.05,34.22,0,51.33,0,7.58,4,11.72,12.45,13.23a32.54,32.54,0,0,0,13-.29c6.1-1.38,9.53-5,10.63-11.12a39.47,39.47,0,0,0,.53-7q0-22.51,0-45c0-5.23-1.7-6.93-6.87-6.95-.87,0-1.74,0-2.62,0-1.18,0-2.17.15-2.11-1.66,0-1.55.36-2.1,2-2.08q12.84.13,25.67,0c1.59,0,1.84.6,1.85,2s-.33,1.88-1.74,1.77a34.78,34.78,0,0,0-4.45,0c-4.06.19-6,2.22-6,6.3q0,22.92,0,45.83a44,44,0,0,1-1.39,11.12,16.52,16.52,0,0,1-10.67,12,49.1,49.1,0,0,1-36.74-.43c-7.18-2.88-10.79-8.37-10.93-16-.15-8.82,0-17.63,0-26.45Z" transform="translate(-73.52 -262.91)" fill="#462d1c"></path><path d="M184.23,350.24h-32c-1.35,0-2.69.41-2.65-2s1.51-1.81,2.77-1.87a45.84,45.84,0,0,0,4.7-.16c3.38-.49,4.5-1.82,4.53-5.25,0-5.68,0-11.36,0-17q0-21.88,0-43.76c0-5.23-1.62-6.81-6.93-6.82-.87,0-1.75,0-2.62,0-1.37.06-2.43.17-2.46-1.92s1-2.12,2.55-2.12q18.08.06,36.15,0c1.36,0,2.45-.2,2.44,1.93s-.9,2.13-2.5,2.13c-8.84,0-9.44.61-9.44,9.51V339.5c0,6.67.52,7.2,7.08,7.19,2.62,0,5.25.12,7.85-.09,6.8-.55,12-3.87,15.82-9.45a41.36,41.36,0,0,0,6.36-17c.47-2.86,2.42-1.52,3.75-1.66,2-.2,1.08,1.44,1,2.23-.44,9.24-1,18.48-1.41,27.72-.08,1.9-1.05,1.8-2.32,1.8Z" transform="translate(-73.52 -262.91)" fill="#462d1c"></path><path d="M250,306.12c-6.64,0-13.27-.06-19.9,0-1.69,0-2.08-.47-1.86-2.07a52.23,52.23,0,0,1,4.56-15.71,2.82,2.82,0,0,1,3-1.81q17,.09,34,0c1.85,0,2.36.5,2.31,2.33-.13,5-.17,9.95,0,14.92.08,2.11-.69,2.39-2.52,2.36C263.08,306.05,256.54,306.12,250,306.12Z" transform="translate(-73.52 -262.91)" fill="#462d1c"></path><path d="M298.64,306.12c-6.54,0-13.08-.06-19.62,0-1.73,0-2.18-.46-2.15-2.17.12-5.14.13-10.29,0-15.43,0-1.71.54-2,2.08-2q17,.07,34,0A2.28,2.28,0,0,1,315.4,288a50,50,0,0,1,4.83,16.7c.22,1.94-1.06,1.4-2,1.4C311.73,306.13,305.18,306.12,298.64,306.12Z" transform="translate(-73.52 -262.91)" fill="#462d1c"></path><path d="M250,311.06c6.54,0,13.09.1,19.62-.06,2.17-.05,2.58.67,2.52,2.64-.14,4.62-.1,9.25,0,13.87,0,1.46-.36,1.95-1.88,1.94q-17.92-.07-35.84,0a2.18,2.18,0,0,1-2.3-1.59A51.53,51.53,0,0,1,228.19,313c-.21-1.67.33-2,1.93-2C236.75,311.11,243.38,311.06,250,311.06Z" transform="translate(-73.52 -262.91)" fill="#462d1c"></path><path d="M298.61,311.06c6.54,0,13.08.05,19.62,0,1.7,0,2.25.36,2,2.16a53.85,53.85,0,0,1-3.77,14.33,2.67,2.67,0,0,1-2.86,2q-17.26-.14-34.53,0c-1.64,0-2.27-.32-2.21-2.13.14-4.7.12-9.42,0-14.12,0-1.68.37-2.21,2.12-2.18C285.53,311.12,292.07,311.06,298.61,311.06Z" transform="translate(-73.52 -262.91)" fill="#462d1c"></path><path d="M235.54,334.24c12.07,0,23.48,0,34.9,0,1.49,0,1.69.59,1.68,1.85-.05,5.76,0,11.52,0,17.28,0,.88.17,1.74-1.29,1.6C256,353.62,244.53,346.7,235.54,334.24Z" transform="translate(-73.52 -262.91)" fill="#462d1c"></path><path d="M312.8,334.24c-7.47,10.71-17.12,17.31-29.44,19.87-6.42,1.33-6.44,1.24-6.44-5.25,0-4.19.06-8.37,0-12.55,0-1.51.22-2.13,1.95-2.11C290,334.28,301.13,334.24,312.8,334.24Z" transform="translate(-73.52 -262.91)" fill="#462d1c"></path><path d="M236.77,281.79c8.71-11.13,19.48-17.43,33-18.84,1.78-.18,2.38.31,2.32,2.21-.14,4.88-.09,9.77,0,14.66,0,1.37-.18,2-1.8,2C259.34,281.76,248.36,281.79,236.77,281.79Z" transform="translate(-73.52 -262.91)" fill="#462d1c"></path><path d="M311.49,281.79H296.07c-5.76,0-11.51,0-17.26,0-1.43,0-2-.31-1.93-1.86.1-5,.18-10.11,0-15.16-.09-2.24,1.14-1.94,2.41-1.8a45.37,45.37,0,0,1,20.84,7.68A43.77,43.77,0,0,1,311.49,281.79Z" transform="translate(-73.52 -262.91)" fill="#462d1c"></path></svg>