<svg xmlns="http://www.w3.org/2000/svg" viewBox="0 0 771.23 187.53"><path d="M163,325a40.27,40.27,0,0,0-14.6-23.17c-6.66-5.25-14.32-8.32-22.51-10.18-2.82-.64-5.68-1.1-8.79-1.7a61.91,61.91,0,0,0,14.49-3.12c11.66-4.15,20.07-11.68,24.17-23.54,2.62-7.6,2.8-15.42,1.62-23.29-2.06-13.8-9.28-23.72-22.17-29.36-9-3.93-18.5-5.21-28.18-5.27-18.47-.12-36.94,0-55.41-.06v1.21c5,0,9.93,0,14.9,0,1.82,0,1.94.15,1.94,2V379.57c0,2.26-.06,2.32-2.39,2.33H51.65v1.21c5.37,0,10.74,0,16.11-.05,16-.12,32.12.39,48.17-.29a68.49,68.49,0,0,0,23.29-4.84c11.64-4.75,19.66-12.92,23.14-25.12A54.88,54.88,0,0,0,163,325ZM90.51,248c0-13.33,0-26.66,0-40,0-1.23.25-1.61,1.53-1.55,4.71.18,9.43-.23,14.14.28,12.74,1.4,21.13,8.36,25.62,20.17,3.08,8.09,3.81,16.54,3.48,25.11a52.17,52.17,0,0,1-3.71,18.29c-5.26,12.51-14.9,18.64-28.28,19.2-3.7.15-7.42,0-11.14.07-1.26,0-1.65-.21-1.65-1.59C90.54,274.69,90.51,261.36,90.51,248Zm48.63,95a56.49,56.49,0,0,1-5.32,21.86c-4.39,8.92-11.15,14.91-21.23,16.61a48.46,48.46,0,0,1-8.25.44c-3.87,0-7.73,0-11.6,0-2.13,0-2.23-.1-2.23-2.17v-43.6q0-22,0-43.9c0-1.1.17-1.54,1.42-1.5,5.71.19,11.43-.27,17.13.58,14,2.09,22.92,10.18,27.23,23.48C139.25,324,139.73,333.44,139.14,343Z" transform="translate(-51.65 -200.42)" fill="#452b1a"></path><path d="M694.2,381.91c-5.62,0-11.25-.06-16.87,0-1.25,0-1.69-.38-2-1.53Q650.59,294.68,625.82,209c-.82-2.84-1.65-5.67-2.49-8.53-.52.22-.47.55-.54.83q-4.57,17.72-9.16,35.43-15.9,61.57-31.81,123.14-2.51,9.72-5.08,19.44c-.68,2.54-.85,2.61-3.39,2.61-7.33,0-14.66-.06-22,0-1.5,0-2-.49-2.38-1.86q-25.31-87.81-50.69-175.59c-.39-1.34-.81-2.67-1.23-4a.83.83,0,0,0-.49.73L488,234.29q-17,65.63-33.91,131.26c-1.22,4.7-2.41,9.4-3.68,14.08-.57,2.1-.9,2.27-3.06,2.27H432.31c-.34,0-.72-.07-.73.49s.29.69.76.66h.6q17.7,0,35.4,0c.45,0,1.23.36,1.26-.56s-.79-.56-1.22-.56c-4.67,0-9.34,0-14,0-2.93,0-3.42.72-2.45-3.09,4-15.75,8.09-31.47,12.1-47.22a1.28,1.28,0,0,1,1.5-1.17q21.92,0,43.83,0c1.1,0,1.42.4,1.67,1.34q5.38,19.75,10.83,39.48c1,3.51,1.9,7,2.89,10.68H506.68c-.31,0-.73-.14-.75.45s.19.74.7.71c.2,0,.4,0,.6,0q43.68,0,87.35,0c.47,0,1.24.35,1.27-.57s-.8-.55-1.23-.55c-4.72,0-9.44,0-14.15,0-2.73,0-3.27.71-2.34-2.95,4-15.79,8.1-31.57,12.12-47.36.26-1,.73-1.17,1.66-1.17q21.75,0,43.52,0c1.2,0,1.57.39,1.87,1.48q5.3,19.55,10.7,39.05c1,3.61,2,7.22,3,11H632.92c-.31,0-.74-.13-.75.45s.19.74.7.7h.6q30.35,0,60.69,0c.45,0,1.23.41,1.25-.56S694.63,381.92,694.2,381.91Zm-229.51-52.7c7.33-28.48,14.63-56.81,22-85.55,7.92,28.78,15.71,57.13,23.53,85.55Zm126.24,0,22-85.55,23.53,85.55Z" transform="translate(-51.65 -200.42)" fill="#452b1a"></path><path d="M822.82,346.32c0-.34.22-.87-.46-.88s-.59.54-.59,1c0,3,0,6,0,9a112,112,0,0,1-.74,16.06c-.5,3.42-1.21,6.8-3.13,9.78s-4.66,3.76-8,3.3c-3.07-.42-4.74-2.35-5.53-5.19-.2-.73-.42-1.45-.56-2.18a70.88,70.88,0,0,1-.92-13.33c0-14.34-.06-28.68,0-43,0-10.68-4.74-18.25-14.34-22.85a59,59,0,0,0-13-4.24c-3.57-.78-7.19-1.26-10.8-1.91a67.59,67.59,0,0,0,11.28-2.59C789.73,284.78,799,276,802.79,262c2.58-9.69,2.15-19.46-.1-29.16-2.83-12.15-10.34-20-22.15-23.92a75.41,75.41,0,0,0-23.41-3.49c-20.08-.12-40.17-.06-60.25-.05-.4,0-1.1-.37-1.12.51s.74.62,1.19.63c4.52,0,9,0,13.56,0,2,0,2.08.11,2.08,2V380c0,1.79-.13,1.94-2,1.94-4.52,0-9,0-13.56,0-.44,0-1.22-.42-1.28.49s.74.63,1.2.63q25.45,0,50.91,0c.46,0,1.22.33,1.17-.64s-.75-.48-1.14-.49c-3.82,0-7.63,0-11.45,0-1.32,0-1.85-.45-1.85-1.86q.06-43.16,0-86.32c0-1,.24-1.28,1.24-1.26,4.42.06,8.84,0,13.26,0a42.24,42.24,0,0,1,10.73,1.28c7.45,1.93,13.72,5.55,17.65,12.46,2.63,4.62,3.36,9.68,3.36,14.9q0,19.33,0,38.65a42.1,42.1,0,0,0,.71,8.68c1.79,8.46,6.23,14.76,14.6,17.83a28,28,0,0,0,11.7,1.56c6.39-.45,10.75-3.68,12.95-9.74a30.72,30.72,0,0,0,1.7-7.9C823.19,362.26,822.69,354.28,822.82,346.32Zm-71.08-55c-5.21.18-10.44,0-15.66.09-1.16,0-1.5-.27-1.49-1.47,0-12.88,0-25.76,0-38.64v-2.41q0-20.44,0-40.89c0-1.18.3-1.49,1.48-1.47,5.32.07,10.64-.07,16,.08,7.23.2,13.83,2.21,19.08,7.5,4.33,4.38,6.63,9.82,8,15.69,2.15,9,2.27,18.06,1.64,27.19a54.36,54.36,0,0,1-3.61,16.64C772.57,285.06,764,290.87,751.74,291.28Z" transform="translate(-51.65 -200.42)" fill="#452b1a"></path><path d="M320.8,383.07a3.44,3.44,0,0,1,.55-1.72q36.91-86.42,73.88-172.82c.81-1.9.73-2-1.3-2-13.81,0-27.61.11-41.42,0a15.73,15.73,0,0,0-11.71,4.83c-4.61,4.51-7.5,10.1-9.83,16a118.26,118.26,0,0,0-6.71,27.63,251.2,251.2,0,0,0-1.89,35.85c0,.4,0,.8,0,1.2s-.25.5-.6.52-.53-.19-.54-.53v-1q0-42,0-84.07c0-1.06.11-1.53,1.4-1.53q49,.06,98,0H422c-.84,2-1.61,3.81-2.39,5.63L347.4,379.78c-.88,2.06-.84,2.11,1.46,2.11,12.8,0,25.61-.13,38.41.07,6.25.1,11-2.36,15-6.88,4.71-5.38,7.5-11.79,9.66-18.49,3.29-10.26,4.83-20.84,5.75-31.54.8-9.25.95-18.51.9-27.79,0-.3,0-.6,0-.9s.27-.46.6-.46.56.12.56.5v1.21q0,41.88,0,83.77c0,1.32-.26,1.73-1.68,1.73q-47.89-.08-95.79,0Z" transform="translate(-51.65 -200.42)" fill="#452b1a"></path><path d="M306.26,381.92c-5.67,0-11.35-.06-17,0-1,0-1.44-.24-1.73-1.26Q261.77,291.41,236,202.2c-.17-.59-.12-1.31-.81-1.78-.13.47-.27.9-.38,1.33q-3.08,11.91-6.16,23.81l-35.7,138.23c-1.35,5.23-2.69,10.46-4.11,15.66-.64,2.36-.86,2.45-3.22,2.45-4.77,0-9.54,0-14.31,0-.43,0-1.23-.44-1.26.49s.85.62,1.33.62q17.68,0,35.39,0c.44,0,1.23.41,1.23-.57s-.79-.54-1.22-.55c-5.17,0-10.34-.05-15.51,0-1.2,0-1.53-.44-1.32-1.51.07-.35.13-.69.21-1q6.15-24,12.28-47.94c.23-.9.65-1,1.44-1q22,0,44,0c1,0,1.25.32,1.49,1.19q3.85,14.26,7.8,28.49c2,7.23,4,14.45,6,21.81h-1.59c-5.32,0-10.64,0-16,0-.44,0-1.25-.4-1.21.57s.81.56,1.27.56q30.35,0,60.7,0c.46,0,1.25.33,1.21-.61S306.7,381.92,306.26,381.92ZM241.5,329.27c-12.35,0-24.7,0-37.05,0-1.14,0-1.4-.15-1.09-1.37,7.23-27.92,14.4-55.86,21.71-84.27,7.91,28.76,15.71,57.1,23.55,85.62Z" transform="translate(-51.65 -200.42)" fill="#452b1a"></path><path d="M533.59,214.3c0-2.15-.07-4.31,0-6.46.08-1.31-.28-1.86-1.62-1.61a.71.71,0,0,1-.78-.26H540a3.19,3.19,0,0,1-.65.26c-2.23.14-2.23.13-2.23,2.31,0,4.51.07,9,0,13.52,0,1.46.35,2,1.8,1.77a.65.65,0,0,1,.85.31h-8.43a.27.27,0,0,1,.35-.31c1.73.33,2.07-.49,2-2.05-.14-2.25,0-4.51,0-6.76A.67.67,0,0,1,533.59,214.3Z" transform="translate(-51.65 -200.42)" fill="#452b1a"></path><path d="M521.6,223.7c0-5.5,0-11,.06-16.48,0-.79-.21-1.08-1-1a2.82,2.82,0,0,1-1.6-.25h8.52c-.07.08-.09.13-.13.15-.68.33-1.75-.29-2.07.31a5.77,5.77,0,0,0-.17,2.48c0,1.8,0,3.6,0,5.4a.57.57,0,0,1,0,.68v8.65c0,.22-.07.47-.26.44C523.85,223.91,522.62,224.67,521.6,223.7Z" transform="translate(-51.65 -200.42)" fill="#452b1a"></path><path d="M574.44,221.14c-.61,2.58-1.8,3.38-4.44,2.9a5.61,5.61,0,0,0-.59-.06c.14-.63.48-.21.75-.13,1.81.49,3,0,3.57-1.71a10.6,10.6,0,0,0-.06-7,2.46,2.46,0,0,0-1.76-1.69,3.76,3.76,0,0,0-3.26,1.33c0,2-.12,4,0,6,.25,3.3-.24,6.59,0,9.88,0,.36-.23.8.22,1.08-.8.06-.7-.62-.7-1,0-2.34-.1-4.67.09-7,.16-1.86-.24-3.76-.15-5.66a14.18,14.18,0,0,1,.17-3.12q.18-.24.36-.45l.08-.1a3.45,3.45,0,0,1,3.17-1.12l.2,0a3.22,3.22,0,0,1,2.2,2.55A10.5,10.5,0,0,1,574.44,221.14Z" transform="translate(-51.65 -200.42)" fill="#452b1a"></path><path d="M570.28,231.92a1.49,1.49,0,0,1,0,.21h-5.79c1.66,0,1.56-1.11,1.55-2.28q-.06-7.2,0-14.4c0-1.17.11-2.24-1.57-2.28,1.21,0,2.42,0,3.63,0,.64,0,.56.41.57.8a.73.73,0,0,1,.08.37,1.2,1.2,0,0,1-.08.42c0,2-.12,4,0,6,.25,3.3-.24,6.59,0,9.88,0,.36-.23.8.22,1.08Z" transform="translate(-51.65 -200.42)" fill="#452b1a"></path><path d="M552.23,223.42c-1.27,1.38-2.6,1.37-4.22,0-.21-.28-.59-.36-.48-1a21.47,21.47,0,0,0,.16-3.41c0-.31.12-.78-.48-.67a16.18,16.18,0,0,0-2.61.58c-1.15.42-1.75,2.43-1.18,3.78a2,2,0,0,0,2.73,1.13c.16,0,.44-.35.62-.25a.63.63,0,0,1,.15.34.22.22,0,0,1,0,.08,6,6,0,0,1-3.8.28c-1.2-.25-2.2-.78-2.41-2.12a2.85,2.85,0,0,1,1.57-3.11,6.86,6.86,0,0,1,2.7-.79c.94-.11,2.14.25,2.65-.88a3.74,3.74,0,0,0-1.35-4c0-.25,0-.43.28-.32l.08,0c2.21.23,3.43,1.34,3.57,3.47.13,1.79.08,3.59.11,5.39S550.51,224,552.23,223.42Z" transform="translate(-51.65 -200.42)" fill="#452b1a"></path><path d="M603.94,224.72l.2-4c.79,2.06,2.08,3.27,4.33,3.28,1.23,0,2.22-.36,2.49-1.68s-.58-2-1.67-2.49c-.69-.3-1.42-.47-2.12-.74-2-.77-2.83-1.9-2.47-3.53a3.73,3.73,0,0,1,4.06-2.61,6,6,0,0,0,2.23.17c.37-.09.6,0,.58.43a4.87,4.87,0,0,1-.29,2.39c-.43-1.78-1.41-2.6-3-2.57-.85,0-1.65.18-1.92,1.11a1.79,1.79,0,0,0,1,2.24c1.22.57,2.55.91,3.73,1.54a2.93,2.93,0,0,1,.92,4.78,4.67,4.67,0,0,1-4,1.35,4.9,4.9,0,0,1-1.45-.36A1.88,1.88,0,0,0,603.94,224.72Z" transform="translate(-51.65 -200.42)" fill="#452b1a"></path><path d="M558.44,214.43a3.48,3.48,0,0,0-.51,2.14c0,1.7,0,3.4,0,5.1,0,1.1-.44,2.52,1.52,2.49h-5.8c2.23,0,1.61-1.67,1.61-2.92,0-2-.07-3.91,0-5.85.07-1.28,0-2.19-1.91-1.79l.25-.44a12,12,0,0,0,2.81,0c1.31-.32,1.37.91,2,1.34Z" transform="translate(-51.65 -200.42)" fill="#452b1a"></path><path d="M597.12,224.21h-6a1.27,1.27,0,0,1,.08-.28c1.49.14,1.59-.71,1.54-1.91-.09-2.2-.08-4.41,0-6.61,0-1.22,0-2.22-1.62-2.23a23.27,23.27,0,0,1,3.83,0c.86.15.65,1.25.59,1.84-.3,2.64,0,5.29-.15,7.93C595.28,224.36,596.52,223.49,597.12,224.21Z" transform="translate(-51.65 -200.42)" fill="#452b1a"></path><path d="M581.7,219.65a4,4,0,0,1,0,.6c.07,1.42.09,3,1.68,3.54a4.57,4.57,0,0,0,4.62-.94c.36-.3.54-.83,1.11-.92a5.38,5.38,0,0,1-6.83,2,5.76,5.76,0,0,1-3.16-7.11,5.49,5.49,0,0,1,6.31-3.75.29.29,0,0,1,0,.34v0l0-.06c-2.67-.1-3.76,1-3.7,3.57,0,.59.16.79.75.77,1.48-.05,3-.08,4.45-.11l-.13-.3h0l.08,0a2.44,2.44,0,0,0,2.47-.4c.57,1,.18,1.28-.86,1.26-1.85-.05-3.71.07-5.55-.05C581.77,218.13,581.49,218.59,581.7,219.65Z" transform="translate(-51.65 -200.42)" fill="#452b1a"></path><path d="M576.74,220.18a5.53,5.53,0,0,1-7.33,3.8c.14-.63.48-.21.75-.13,1.81.49,3,0,3.57-1.71a10.6,10.6,0,0,0-.06-7,2.46,2.46,0,0,0-1.76-1.69.52.52,0,0,1,0-.21c0-.13.11-.18.34-.09A5.74,5.74,0,0,1,576.74,220.18Z" transform="translate(-51.65 -200.42)" fill="#452b1a"></path><path d="M589.4,217c-.39,1.74-1.5.91-2.45.67l-.13-.3h0l.08,0c-.09-1.45,0-2.95-1.43-3.93v0l0-.06c0-.11,0-.21,0-.31A4.29,4.29,0,0,1,589.4,217Z" transform="translate(-51.65 -200.42)" fill="#452b1a"></path><path d="M558.48,214.46a1.94,1.94,0,0,1,2.36-1.51c1,.14,2,.53,2,1.79,0,1-.56,1.45-1.5,1.41-.72,0-1.29-.3-1.2-1.17.05-.44.66-.95-.1-1.26s-1.23.15-1.63.7Z" transform="translate(-51.65 -200.42)" fill="#452b1a"></path><path d="M595.89,213.87c1.49-1.13,2.59-1.16,3.69-.46a1.49,1.49,0,0,1,.58,2.08,1.41,1.41,0,0,1-1.83.59c-.47-.15-.9-.56-.72-1C598.22,213.65,597.55,213.46,595.89,213.87Z" transform="translate(-51.65 -200.42)" fill="#452b1a"></path><path d="M604.45,211c-.14-.29-.36-.19-.53-.2-1-.08-1.5-.61-1.36-1.58a1.23,1.23,0,0,1,1.53-1.09,1.37,1.37,0,0,1,1.24,1.72c-.24,1.69-1.42,2.67-2.78,3.49C603,212.38,604.15,212,604.45,211Z" transform="translate(-51.65 -200.42)" fill="#452b1a"></path><path d="M546.65,213.13l-.36.29c-1.26-.07-2.43-.07-1.84,1.79.16.49-.13.85-.62,1a1.25,1.25,0,0,1-1.5-.27,1.18,1.18,0,0,1-.14-1.39,3.15,3.15,0,0,1,2.56-1.59A3.09,3.09,0,0,1,546.65,213.13Z" transform="translate(-51.65 -200.42)" fill="#452b1a"></path><path d="M525.23,215v-.68l8.36,0V215Z" transform="translate(-51.65 -200.42)" fill="#452b1a"></path><path d="M521.6,223.7a4.31,4.31,0,0,0,3.63,0c.76.23,1.62-.11,2.34.53h-9C519.78,223.5,520.73,223.87,521.6,223.7Z" transform="translate(-51.65 -200.42)" fill="#452b1a"></path><path d="M572.24,213.12l-.14.13-.19.17a3.76,3.76,0,0,0-3.26,1.33V214C569.77,213.39,570.79,212.35,572.24,213.12Z" transform="translate(-51.65 -200.42)" fill="#452b1a"></path><path d="M586.93,217.39l-.08,0h0l.13.3C586.94,217.57,586.94,217.48,586.93,217.39Zm-1.44-3.9v0l0,0Z" transform="translate(-51.65 -200.42)" fill="#452b1a"></path></svg>