<svg xmlns="http://www.w3.org/2000/svg" viewBox="0 0 775.56 214.83"><path d="M678.23,297q0-48.3,0-96.6c0-2.26-.38-3.12-2.87-3-4.63.23-9.28.2-13.92,0-2.19-.08-2.64.61-2.63,2.7.08,19.88,0,39.77,0,59.66,0,31.15-.18,62.31.06,93.47.16,19.57-8.58,33.67-26.06,41.45-27.45,12.22-54.67,10.13-80.42-5.06-15.54-9.17-22.73-23.73-22.73-41.77q0-73.44.08-146.88c0-3.07-.88-3.74-3.73-3.58-4.34.25-8.71.15-13.06,0-1.07,0-3.06,1-3.15-1-.09-2.27,2-1.12,3-1.13,18.75-.07,37.5,0,56.25,0,4,0,8,0,11.93,0,.86,0,2.06-.37,2,1.23-.08,1.4-1.19,1-1.92,1-4.83,0-9.67.15-14.49,0-2.3-.09-3,.44-3,2.88.13,14.4.07,28.79.07,43.19,0,36.65.18,73.3-.09,109.94-.11,14.78,6.17,25.72,18.27,33.38,15.2,9.61,31.44,11.94,48.47,5.12a39.9,39.9,0,0,0,25.26-37.35q0-76.86.08-153.7c0-3-.88-3.56-3.61-3.46-5.67.2-11.36.09-17,0-.85,0-2.36.71-2.35-1.07s1.5-1.08,2.36-1.08q30-.06,59.94,0,53.28,0,106.54-.06c2.49,0,3.11.56,3.1,3.1-.12,22.53-.07,45.07-.07,67.61,0,.48,0,.95,0,1.42,0,.63.25,1.48-.69,1.6-1.14.15-1-.81-1.12-1.53-.87-5.6-1.56-11.23-2.66-16.78-2.3-11.48-6.12-22.35-13.08-32-8.77-12.13-20.85-18.24-35.41-20-12.34-1.52-24.74-1-37.13-1.15-1.53,0-1.88.46-1.88,1.92q.06,45.32,0,90.63c0,.94-.17,1.89,1.27,2,7.9.62,15.82,1.34,23.56-1.11,11-3.49,16.31-11.93,19-22.48a64.18,64.18,0,0,0,1.9-13.16c0-.92-.12-2.09,1.32-2s.85,1.27.85,2q0,39.48,0,79c0,.72.52,1.85-.89,2s-1.31-1.06-1.47-1.93c-1.55-8.41-3.88-16.55-8.43-23.9-6.69-10.79-16.34-15.89-29-15a30.3,30.3,0,0,1-5.36.28c-2.72-.31-2.72,1.11-2.72,3.15q.07,45.74,0,91.48c0,6.41,0,6.44,6.44,6.41,9.28,0,18.58.3,27.82-.31,17.49-1.14,31.71-9,43.11-22.25,11.09-12.87,15.15-28.22,16.05-44.72a41.34,41.34,0,0,1,.4-5.35c.16-.88-.81-2.69,1.18-2.54,1.62.12.89,1.63.9,2.52.07,5.29,0,10.57,0,15.85q-.06,25-.14,49.93c0,2.44-.08,4.89,0,7.32.07,1.26-.32,1.78-1.54,1.74-.57,0-1.14,0-1.7,0H664.34a6.09,6.09,0,0,1-1.13,0c-.8-.15-2.11.52-2.07-1.1s1.32-1,2.13-1.05c4.07-.06,8.15-.16,12.21,0,2.25.11,2.8-.58,2.8-2.8Q678.16,345.39,678.23,297Z" transform="translate(-33.17 -190.22)" fill="#452b1a"></path><path d="M342.08,262.16c-7.33-24.9-20.77-45.64-43.25-59.63-14.93-9.29-31.1-13.6-48.69-10.94-23.56,3.57-41.66,16.2-55.73,34.87-15.88,21-22.41,45.23-22.73,71.3A118.47,118.47,0,0,0,172.84,315a112,112,0,0,0,3.43,16.92c7.87,27.07,22.25,49.38,47.47,63.32,23.16,12.81,46.8,13.13,70.17.6,22.84-12.25,37.46-31.64,46-55.71A123.5,123.5,0,0,0,342.08,262.16ZM295.45,371.59c-3.78,8.62-8.72,16.55-16.11,22.65-14.26,11.77-33.29,9.37-45.63-5.76-9.1-11.14-14-24.24-17.7-37.91a199,199,0,0,1-6.94-46.39c-.75-27.69,3.38-54.55,14.37-80.13,3.8-8.84,8.91-16.92,16.58-23,12.87-10.18,29.63-9.15,41.49,2.37,8.91,8.66,14.11,19.53,18.05,31.05,7,20.54,10.13,41.76,10.53,64.55C309.4,323.32,305.72,348.12,295.45,371.59Z" transform="translate(-33.17 -190.22)" fill="#452b1a"></path><path d="M507.08,357.68c0,12.78,0,25.56,0,38.35,0,.89.76,2.26-.71,2.66-1.18.32-1.5-.94-2-1.66-6.82-9.34-17-11.84-28.82-6.77-6.5,2.79-12.56,6.51-19.31,8.83-28.14,9.66-56.35,1.87-76.56-21.48-14-16.15-21.8-35.23-25.42-56.05a128.51,128.51,0,0,1,10.22-77.94c11.15-23.88,28.54-41.36,53.76-50.26,12.43-4.38,24.8-4.33,37,1.13,3.09,1.39,6.39,2.31,9.59,3.46,8.62,3.12,16.5,1.81,23.8-3.72,1.42-1.07,2.9-3.41,4.75-2.26,1.41.87.47,3.32.47,5.05q.07,31.53,0,63.07a1.74,1.74,0,0,1,0,.56c-.27.85.78,2.33-.95,2.47-1.44.11-1.12-1.26-1.32-2.09a169.64,169.64,0,0,0-5.05-17.68c-6-16.75-14.76-31.72-29-42.8-10.18-7.92-21.58-10.89-34-5.91-9.45,3.79-15.33,11.39-19.86,20.13-6.7,12.92-9.84,26.89-11.93,41.14A309.15,309.15,0,0,0,389,312.14c.78,20.93,3.3,41.58,10.57,61.4,2.13,5.78,4.6,11.41,8.51,16.23,7.91,9.78,18.55,12.47,30.5,11.21,13.14-1.39,24-7,31.75-18a15.61,15.61,0,0,0,2.81-9.32c0-18.27,0-36.55.05-54.82,0-2.13-.5-2.75-2.65-2.67-4.73.17-9.47.07-14.2,0-.76,0-1.81.38-1.79-1.08s1-1.13,1.8-1.14h64.77c.91,0,2-.23,1.92,1.3s-1.23.9-1.94.91c-3.6.05-7.2.16-10.79,0-2.45-.12-3.36.39-3.32,3.16C507.18,332.11,507.08,344.89,507.08,357.68Z" transform="translate(-33.17 -190.22)" fill="#452b1a"></path><path d="M142.58,345.44c15.26-49.49,30.38-98.54,45.64-148h-17c-.65,0-1.06-.24-1.09-1s.3-1.23,1.14-1.23h37.22c.75,0,1.26.19,1.27,1.1,0,1.17-.75,1.11-1.52,1.11-4.55,0-9.1.1-13.64,0-1.76-.06-2.44.62-2.93,2.19q-24.15,77.13-48.37,154.25-7.38,23.49-14.78,47c-.2.61-.47,1.19-.89,2.23-2.78-7.55-5.44-14.68-8.06-21.83q-27.39-75-54.76-149.95C61,220.8,57.09,210.37,53.36,199.89c-.68-1.92-1.59-2.58-3.63-2.51-4.82.16-9.66.07-14.49,0-.8,0-2.09.53-2.07-1.09s1.28-1.08,2.09-1.08q34.52,0,69,0c.85,0,2.07-.38,2,1.21-.07,1.4-1.18,1-1.92,1-4.35,0-8.71.12-13.07,0-2.28-.08-2.89.23-2,2.7,7.46,20.08,14.79,40.2,22.13,60.31q15.12,41.48,30.22,83C141.86,343.88,142.11,344.39,142.58,345.44Z" transform="translate(-33.17 -190.22)" fill="#452b1a"></path></svg>