<svg xmlns="http://www.w3.org/2000/svg" viewBox="0 0 784.19 82.87"><path d="M710.1,293.62a35.24,35.24,0,0,0-31-30.41c-12.53-1.49-25.16-.52-37.75-.69-1,0-1.7.06-1.93,1.36s-.37,2.21.77,2.88a7.4,7.4,0,0,0,3.56,1.08c3.94.17,4.21.55,4.21,4.35v5q0,24,0,47.93c0,2.79-1.08,4.43-3.93,5.1-3.77.89-7.18-.25-9.9-3.61-3.1-3.84-5.07-8.34-7.51-12.56-3.47-6-6.16-12.64-13.87-14.56-.62-.16-1-.5-.91-1.16.12-.94,1-.73,1.52-.86a20.76,20.76,0,0,0,11.75-6.82c4.34-5.23,5.48-11.18,2.88-17.41s-8.17-8.86-14.41-10c-7.13-1.27-14.37-.78-21.58-.76-4.71,0-9.41.08-14.11,0-1.58,0-2.16.64-2.3,2.05a1.92,1.92,0,0,0,1.94,2.43c1.18.14,2.33.6,3.51.8,4.25.72,4.27.71,4.27,5.12q0,12.54,0,25.08c0,9.19,0,18.39,0,27.58,0,1.46-.06,2.92-1.72,3.31-2.34.54-4.75.81-7.11,1.25-1.68.32-2.43-.39-3-2q-9.56-26.4-19.23-52.74c-2.29-6.25-4.63-12.46-7.08-19.07a46,46,0,0,1-8.5,7.51c-.72.48-1.56.87-1.08,1.92.83,1.82.08,3.43-.57,5-7.12,17.46-14.37,34.87-21.31,52.4-1.51,3.79-3.28,6.52-7.61,6.82a3.66,3.66,0,0,0-1.54.62c-1.24.76-.63,2-.64,3s.79,1.12,1.61,1.12h19.5c1.14,0,1.61-.47,1.76-1.63.31-2.46-1.22-2.93-3.11-3.3-3.58-.71-4.28-1.53-3.35-4.05,2.09-5.63,4.3-11.22,6.47-16.82a3.18,3.18,0,0,1,3.47-2.27c6,.13,12.07.14,18.11,0a2.87,2.87,0,0,1,3.2,2.25c2,5.64,4.15,11.24,6.13,16.89.51,1.49.86,3.05-1.73,3.31a34.41,34.41,0,0,0-4.32,1c-1.84.43-1.88,1.78-1.59,3.38s1.26,1.68,2.6,1.39a12.75,12.75,0,0,1,2.77-.13c15.79,0,31.58-.06,47.37.06,2.36,0,2.87-.83,2.63-2.86a1.85,1.85,0,0,0-1.88-1.93c-1.74-.19-3.44-.88-5.18-.95-1.95-.08-2.23-1-2.21-2.66,0-7.43,0-14.86,0-22.29,0-3.16.72-3.67,3.76-2.63a13.15,13.15,0,0,1,2,1c4.57,2.56,6.13,7.4,8.64,11.49,3.41,5.55,6,11.53,9.65,17,5.57,8.42,15.56,10.51,23.88,4.87a6.47,6.47,0,0,1,3.89-1.12c7.15,0,14.31-.06,21.46,0,9.43.13,18.28-2.42,25.33-8.33C706.8,318.14,711.84,307.22,710.1,293.62Zm-162.78,7.25c-4.45-.1-8.9,0-13.36-.05-.69,0-1.81.41-1.75-1,.12-.42.21-.78.34-1.13,2.43-6.4,4.83-12.81,7.31-19.19.25-.67.22-1.83,1.44-1.7s1.11,1.09,1.38,1.85c2.24,6.07,4.43,12.15,6.73,18.2C550.24,300.06,549.71,300.92,547.32,300.87Zm52.62-5.43c-1.56-.09-1.66-1.08-1.64-2.31,0-3.71,0-7.43,0-11.14s.08-7.42,0-11.14c-.06-1.73.53-2.26,2.22-2.19,3,.12,6.17-.31,9,1.15,7.29,3.76,9.42,12.13,5,19.12C611.07,294.37,605.91,295.76,599.94,295.44ZM692.72,317c-4.41,7.57-11.43,11.12-20.07,11.49-3.16.14-6.32-.09-9.47.06-2,.09-2.54-.56-2.53-2.51.09-9.19.05-18.39,0-27.58,0-9,.06-18-.05-27,0-2.06.53-2.78,2.64-2.71,5,.19,10.05-.39,15,.87,8.34,2.14,14.12,7.28,16.84,15.45C698.72,296,698.66,306.79,692.72,317Z" transform="translate(-28.85 -256.2)" fill="#452b1a"></path><path d="M361.05,264.06c-.37-2.3-2.21-1.64-3.44-1.63-6,0-12,.36-18-.2-2.83-.26-3.8.8-3.45,3.11.37,2.48,2.55,1.87,3.91,2.25,4.4,1.26,4.47,1.13,4.82,5.61,1,12.5.13,25,.69,37.55,0,.78.56,2.29-.75,2.61s-1.87-.87-2.59-1.72c-2.91-3.43-5.87-6.82-8.78-10.24q-15.71-18.51-31.35-37a4.6,4.6,0,0,0-4-1.86c-4.71.1-9.41,0-14.12.08-1.05,0-2.72-.88-2.85,1.45-.1,1.83.24,3,2.31,3.24,1.64.21,3.24.9,4.88,1,2,.13,2.35,1.05,2.31,2.85-.2,9.62-.31,19.24-.41,28.86-.07,7.61,0,15.23-.15,22.84-.06,5.15-.12,5.14-4.63,6.77-3.37,1.21-4.44.72-5.68-2.65q-9.72-26.49-19.43-53c-2.12-5.77-4.23-11.56-6.44-17.59-2,1.89-3.44,3.8-5.46,5.13-2.65,1.74-5.07,3.58-4,7.37.1.36-.28.86-.46,1.28-1.07,2.46-2.2,4.89-3.21,7.37-6.09,15-12.31,30-18.14,45.14-1.59,4.12-3.34,7.25-8.17,7.44a2.68,2.68,0,0,0-.52.18c-1.62.52-1.46,1.68-1.4,3.08.08,1.77,1.47,1.8,2.3,1.72,6-.55,12,0,18.06-.24,1,0,2.36.53,2.36-1.39,0-1.53.18-3-1.88-3.37-1.09-.19-2.14-.6-3.22-.83-1.77-.36-1.94-1.42-1.38-2.88,2.31-5.94,4.65-11.88,6.9-17.85a2.37,2.37,0,0,1,2.65-1.73c6.32.08,12.63.09,19,0,1.7,0,2.36.59,2.89,2.19,1.51,4.55,3.22,9,4.94,13.51,2.32,6,2.2,6.4-4.11,7.56-2,.36-2.63,1.28-2.51,3.19.14,2.15,1.69,1.6,2.86,1.6q21.18,0,42.36,0c1.22,0,2.67.46,2.64-1.74,0-1.7-.27-2.84-2.28-3-1.65-.16-3.24-.78-4.88-1s-2.19-1.06-2.21-2.55q-.21-22.69-.45-45.38c0-.83-.13-1.81.82-2.15s1.58.48,2,1.15a66.18,66.18,0,0,0,5,5.75q17.14,20.16,34.24,40.38,4.23,5,8.49,9.92a3.17,3.17,0,0,0,3.48,1.08c1.59-.44,1.07-1.74,1.08-2.76q.3-29.92.53-59.86c0-5.78,0-5.78,5.64-7.25a5.17,5.17,0,0,1,.54-.11C360.15,267,361.42,266.34,361.05,264.06ZM255.28,300.8H248v0h-6.4c-2.08,0-3.14-.53-2.16-3,2.54-6.34,4.87-12.77,7.3-19.16.22-.57.27-1.41,1.16-1.3.63.08.76.75.95,1.25,2.5,6.86,5,13.75,7.52,20.58C256.93,300.54,256.46,300.8,255.28,300.8Z" transform="translate(-28.85 -256.2)" fill="#452b1a"></path><path d="M811.87,330.52c-1.48-.46-2.73-1.58-4.38-1.47-2,.14-2.89-.92-3.51-2.77-2.08-6.3-4.38-12.53-6.75-18.71-4.37-11.38-8.35-22.89-12.69-34.28-1.91-5-3.72-10-5.54-15.07-.53-1.45-1-1.76-2.18-.43a26.78,26.78,0,0,1-6.27,5.43c-.77.45-2.32,1.07-2,2.07,1.1,3.16-.78,5.42-1.74,8.07-4.41,12.14-9.75,23.89-14.44,35.91-2.36,6-4.85,12-7.4,17.93-1.15,2.66-3.68,3.54-7.1,2.68-1.76-.43-3.46-.9-3.45-3.4q.09-27.86,0-55.71a2.07,2.07,0,0,1,1.65-2.36A53.15,53.15,0,0,1,742,267c2.12-.3,1.35-1.8,1.5-3,.21-1.6-.89-1.5-2-1.5-8.66,0-17.32,0-26,0-1.27,0-2.71,0-2.65,1.52.05,1.22-.16,3.09,2.19,3.1a21.61,21.61,0,0,1,3.78.85c2,.4,2.8,1.45,2.8,3.61q0,27.15.13,54.29c0,2.07-.26,3.32-2.79,3.27-1.4,0-2.79.8-4.22,1.14-1.95.47-1.57,2-1.57,3.31,0,1.77,1.37,1.18,2.23,1.18,7,.05,13.93,0,20.89,0h21.17c1.09,0,2.35.27,2.21-1.56-.1-1.33.37-2.89-1.73-3.17-1.09-.15-2.15-.54-3.24-.76-2-.41-2.13-1.65-1.49-3.29,2.26-5.84,4.55-11.65,6.7-17.52a2.15,2.15,0,0,1,2.36-1.74c6.5.05,13,0,19.5,0a2,2,0,0,1,2.26,1.45c2.37,6.17,4.79,12.32,6.89,18.61.48,1.45.3,2-1.25,2.22a32.62,32.62,0,0,0-5.35,1.24c-1.77.61-1.44,1.86-1.4,3.13.06,1.52,1.15,1.39,2.2,1.39,8.54,0,17.08,0,25.62,0,1.21,0,2.05-.27,2.18-1.52C813.09,332.23,813.2,330.93,811.87,330.52Zm-32-29.68h-7.5c-2.41,0-4.82-.07-7.23,0-1.71.06-2.22-.63-1.64-2.16,2.59-6.81,5.21-13.62,7.81-20.43.16-.44.31-.93.84-1,.75-.11.9.55,1.08,1,2.58,7,5.12,14.06,7.73,21.07C781.43,300.63,780.92,300.84,779.88,300.84Z" transform="translate(-28.85 -256.2)" fill="#452b1a"></path><path d="M426,297.78c4,0,8,0,12,0,1.07,0,2,.25,2,1.3s.16,2.54-1.3,2.68c-5.79.58-5.81,4.42-5.64,8.92.27,7.33.09,14.67.06,22,0,2.28-1.26,3.16-2.81,1.64-4.1-4-7.47-2.23-11.77-.07-21.43,10.73-49.56.1-54.11-27.14-3.11-18.59,6.39-35.47,23-43.49a39,39,0,0,1,25-3,44.37,44.37,0,0,1,9.36,3.19c1.9.84,3.29.65,4.45-1.11.46-.69,1.06-1.28,1.58-1.93s.94-1.2,1.84-.81a2,2,0,0,1,1.4,1.88c0,6.87,0,13.74,0,20.61a2,2,0,0,1-1.51,2.07c-1.5.39-1.34-1-1.64-1.69-2.62-6.27-6.4-11.62-12.55-14.79a23.73,23.73,0,0,0-31.48,8.76c-8.54,14-9.06,28.78-1.26,43.22,7.57,14,24.72,15.4,36.2,8.3a3.28,3.28,0,0,0,1.78-3.14q-.13-9.62,0-19.22a2.05,2.05,0,0,0-1.94-2.43,34.79,34.79,0,0,0-4-1c-2.27-.14-2.42-1.45-2.31-3.21.15-2.22,1.79-1.46,2.91-1.48C418.73,297.73,422.35,297.78,426,297.78Z" transform="translate(-28.85 -256.2)" fill="#452b1a"></path><path d="M448.94,292.2c0-7.05-.11-14.11.06-21.17.05-2.08-.76-2.8-2.53-3.1a22.51,22.51,0,0,0-3.26-.62c-2.55,0-2.72-1.55-2.58-3.51.1-1.27.79-1.47,1.82-1.45,3.4.07,6.79.21,10.19.15,5-.09,10,.35,15-.23.94-.11,2.08,0,2.06,1.19s.87,2.66-.81,3.42a10.54,10.54,0,0,1-4.24,1c-2.16,0-3.33.84-3.3,3.51.16,13.27,0,26.55.08,39.83,0,7.52,2.26,14.11,9.46,17.55,7.54,3.6,18.86,3.18,25.08-4.27a16,16,0,0,0,3.9-13.29c-.44-2.65.36-5.32.39-8,.1-7.61.11-15.22-.09-22.83-.09-3.32-.56-6.65-.36-10a1.75,1.75,0,0,0-1.45-1.95,22.79,22.79,0,0,0-4.81-1.22c-2.52-.22-2.52-1.87-2.18-3.53.39-1.87,1.92-1.34,3.29-1.27,5.84.3,11.67,0,17.5-.22,1.4,0,3.11-.22,3.27,2,.12,1.67-.23,2.71-2.23,3.11-6.14,1.25-5.91,1.36-6.17,7.66-.54,12.79-.32,25.59-.55,38.39a25.07,25.07,0,0,1-15.86,22.56c-7.15,2.89-14.53,2.88-21.8,1.41-10.84-2.2-19.18-12.21-19.72-23.41-.35-7.22-.07-14.48-.07-21.72Z" transform="translate(-28.85 -256.2)" fill="#452b1a"></path><path d="M150.42,330c-3-.39-5.48-1.34-6.69-4.71-6.25-17.39-12.68-34.73-19-52.08-2-5.55-4.11-11.1-6.3-17-2.72,3.1-5.16,5.75-8.35,7.53a2,2,0,0,0-1,2.9c.55,1.36-.19,2.74-.69,4-2.92,7.22-5.92,14.42-8.87,21.64q-7,17.09-13.88,34.2c-.58,1.42-1.4,2.62-3,2.88-2.93.46-4.07,2.47-4.62,5.45,6.6,0,13,0,19.31,0,1,0,2.54.76,2.64-1.37.08-1.75-.1-3.1-2.2-3.4-1-.14-2-.53-3-.76-1.65-.39-1.87-1.12-1.29-2.79,2.13-6.19,4.6-12.25,7-18.35a1.86,1.86,0,0,1,2-1.34c6.59.06,13.18.05,19.78,0a1.92,1.92,0,0,1,2.23,1.47c1.53,4.45,3.21,8.84,4.84,13.24,2.45,6.6,2.48,6.64-4.46,8.61-1.81.52-1.51,1.78-1.57,3.06s.64,1.68,1.88,1.68q13-.06,25.91,0c1.6,0,2.06-.64,2.09-2.16C153.22,330.66,152.08,330.19,150.42,330ZM119.75,300.8h-7.24v-.09c-2.22,0-4.45-.09-6.67,0S103.15,300,104,298c2-4.89,3.81-9.83,5.7-14.75.56-1.46,1.11-2.94,1.68-4.4.2-.53.39-1.06,1.12-1s.9.59,1.09,1.09c2.49,6.78,4.92,13.56,7.46,20.32C121.57,300.7,120.8,300.8,119.75,300.8Z" transform="translate(-28.85 -256.2)" fill="#452b1a"></path><path d="M219.92,262.53c3.61,0,7.22,0,10.82,0,1.19,0,2,.29,2.09,1.61s.14,2.48-1.52,2.81a13.11,13.11,0,0,1-2.14.53c-5.15.08-6.94,3.43-8.63,7.72-5.73,14.5-11.86,28.84-17.84,43.24L195.8,335c-.5,1.18-.81,2.48-2.58,2.45s-1.93-1.4-2.46-2.55c-3.35-7.31-6.35-14.77-9.43-22.17-3.56-8.53-7-17.1-10.52-25.66-2.23-5.47-4.53-10.91-6.72-16.4-.77-1.95-2.52-2.26-4.15-2.76a27.92,27.92,0,0,0-4.07-.81,2.1,2.1,0,0,1-2.07-2.62c.17-1.57.93-2,2.55-2,9.32.1,18.64.06,28,.06,1,0,2-.08,1.78,1.35-.17,1.1.87,2.74-1.29,3.07-1.55.23-3.09.57-4.61.94-2,.49-3,1.47-2,3.75,5.59,13.47,11.1,27,16.64,40.48.41,1,.64,2.33,2,2.38s1.27-1.44,1.61-2.28c5.36-13.58,10.63-27.19,16-40.76.85-2.13.55-3.23-1.83-3.53-1.28-.17-2.54-.52-3.82-.73-1.71-.29-2.2-1.29-2.13-2.95.09-1.86,1.26-1.74,2.51-1.73Z" transform="translate(-28.85 -256.2)" fill="#452b1a"></path><path d="M51.92,334.81H31.86c-1.29,0-2.85.26-2.92-1.57-.06-1.55.23-2.93,2.44-3.3,5.78-.95,5.75-1.07,5.75-7,0-16.81-.06-33.61.07-50.42,0-2.94-.74-4.58-3.81-4.72-.36,0-.71-.23-1.07-.27-2-.21-3.77-.71-3.43-3.25s2.43-2.15,4.11-2.05a178.74,178.74,0,0,0,22.2,0c1-.06,2.58-.32,2.73,1.49.14,1.59.23,2.93-2,3.54-6,1.67-5.93,1.79-5.93,8,0,16.81.07,33.62-.06,50.43,0,2.84,1.08,3.36,3.53,3.36,9.94,0,9.94,0,17.18-6.82,2.22-2.1,4.49-4.14,6.74-6.21.84-.77,1.56-1.42,2.87-.51s.91,1.78.5,2.84c-1.9,5-3.83,9.95-5.66,15-.55,1.54-1.69,1.48-2.89,1.49Z" transform="translate(-28.85 -256.2)" fill="#452b1a"></path></svg>