<svg xmlns="http://www.w3.org/2000/svg" viewBox="0 0 529.13 279.93"><path d="M683.54,430.11q-17.81-24.78-35.6-49.56a2,2,0,0,1,0-2.74A139.56,139.56,0,0,0,656.27,364c9.64-18.31,15.76-37.64,16.51-58.41a153.14,153.14,0,0,0-5.58-48.08q-18.35-63.8-80.12-88.21c-15.28-6-31.22-9-47.57-10.1a145.78,145.78,0,0,0-51.74,5.36,139.3,139.3,0,0,0-73.2,50.68c-1.64,2.16-2.27,1.65-3.58-.18a137.38,137.38,0,0,0-23.1-24.95A133.69,133.69,0,0,0,315,158.76c-20.6-2.32-40.95-1.1-60.85,5.18a137.07,137.07,0,0,0-63.49,41.54c-29.83,34.37-39.77,74.31-31.52,118.64,5.75,30.9,21.17,56.86,45,77.26,35.47,30.32,76.72,40.72,122.26,31.67,35.27-7,63.53-26,84.89-55,1.29-1.75,1.81-1.81,3.06,0a139.1,139.1,0,0,0,24.48,26.52c25.32,21.32,54.93,31.31,87.64,33a64.16,64.16,0,0,0,14.57-1c3.2-.58,6.44-.91,9.64-1.5a121.35,121.35,0,0,0,38-13.73c1.33-.76,2-.37,2.79.73,2,2.79,4.21,5.43,6.17,8.25a4.16,4.16,0,0,0,3.91,2q40.59-.09,81.19,0h2.67C684.55,431.19,684,430.7,683.54,430.11ZM392.37,258.92a119.36,119.36,0,0,0-3.29,13.58c-.36,2-1.1,2.31-2.88,2.31-25.21-.05-50.42,0-75.63-.09-2.42,0-3.09.57-3.08,3q.17,29.89,0,59.77c0,2.19.54,2.81,2.75,2.78,10-.13,19.93-.06,29.89,0,.82,0,1.73-.32,2.65.44-2.21,3.32-5.4,5.51-8.57,7.63-36.93,24.7-82.17,6.22-96.34-27.31-10-23.61-6.47-46.11,10.59-65.48,15.83-18,36.2-24.16,59.86-20.94,14.51,2,26.17,8.8,36.14,19a7.43,7.43,0,0,0,5.95,2.48c13.31-.13,26.62,0,39.93-.13C393,256,393.07,256.63,392.37,258.92Zm202.33,57.3c-2.23-3-4.21-5.56-6.05-8.22a3.27,3.27,0,0,0-3-1.64q-41.91,0-83.83,0a11,11,0,0,0-1.29.19L512,323.22q11.21,16.17,22.44,32.34c1.11,1.59,1,2.12-1.05,2.37-24.35,3-43.51-6.2-57.82-25.5-20.7-27.91-11.23-67,15.23-86,13.74-9.87,29.11-14,45.89-12,13.59,1.61,25.38,7.6,35.73,16.4,12.15,10.35,20.41,23.13,23.84,38.9C597.93,297.24,597.57,306.53,594.7,316.22Z" transform="translate(-156.38 -157.67)" fill="#452b1a"></path></svg>